<svg width="236" height="185" viewBox="0 0 236 185" fill="none" xmlns="http://www.w3.org/2000/svg">
<mask id="mask0_12_229" style="mask-type:luminance" maskUnits="userSpaceOnUse" x="73" y="0" width="91" height="113">
<path d="M73 0H163.984V112.008H73V0Z" fill="white"/>
</mask>
<g mask="url(#mask0_12_229)">
<path d="M148.175 25.7997H141.685V23.1453C141.685 10.4059 131.243 0.0291748 118.372 0.0291748C105.501 0.0291748 95.0588 10.3841 95.0588 23.1453V25.7997H88.5687C80.1973 25.7997 73.4083 32.5377 73.4083 40.8361V96.9202C73.4083 105.219 80.1973 111.957 88.5687 111.957H148.175C156.546 111.957 163.343 105.219 163.343 96.9202V40.8653C163.343 32.5668 156.546 25.7997 148.175 25.7997ZM103.372 23.1745C103.372 14.9562 110.117 8.27662 118.401 8.27662C126.685 8.27662 133.423 14.9562 133.423 23.1745V25.8289H103.372V23.1745ZM118.372 92.647C106.274 92.647 96.4443 82.8974 96.4443 70.9018H103.35C103.35 79.12 110.088 85.7997 118.372 85.7997C126.656 85.7997 133.401 79.12 133.401 70.9018H140.307C140.329 82.8755 130.499 92.647 118.372 92.647Z" fill="#00BF63"/>
</g>
<path d="M14.5885 174.737C22.3646 174.737 28.7969 170.82 28.7969 162.726C28.7969 154.305 21.6146 152.534 15.9271 151.086C11.9063 150.122 8.6875 149.315 8.6875 146.69C8.6875 144.221 11.3177 143.096 13.9427 143.096C17 143.096 19.6823 144.596 19.6823 147.867H27.6719C27.6719 140.362 22.7917 135.747 14.1562 135.747C5.84375 135.747 0.536459 139.825 0.536459 147.013C0.536459 155.107 7.40104 156.773 13.0833 158.164C17.1615 159.075 20.5938 159.883 20.5938 162.831C20.5938 165.622 17.5885 167.232 14.5312 167.232C11.2083 167.232 8.20313 165.461 8.20313 161.867H0C0 169.909 5.95313 174.737 14.5885 174.737Z" fill="white"/>
<path d="M51.3763 144.383C47.8867 144.383 44.8294 145.669 42.6315 147.763V134.622H34.8033V173.987H42.6315V158.81C42.6315 154.091 45.2044 151.247 49.1211 151.247C52.6054 151.247 54.1627 153.393 54.1627 157.737V173.987H61.9908V156.398C61.9908 149.049 57.9179 144.383 51.3763 144.383Z" fill="white"/>
<path d="M82.9062 174.846C91.8593 174.846 98.5677 168.247 98.5677 159.508C98.5677 150.763 91.8593 144.221 82.9062 144.221C73.9479 144.221 67.2448 150.763 67.2448 159.508C67.2448 168.247 73.9479 174.846 82.9062 174.846ZM82.9062 167.445C78.401 167.445 75.1822 164.227 75.1822 159.508C75.1822 154.841 78.401 151.57 82.9062 151.57C87.4114 151.57 90.6302 154.841 90.6302 159.508C90.6302 164.227 87.4114 167.445 82.9062 167.445Z" fill="white"/>
<path d="M119.96 144.221C116.366 144.221 113.147 145.508 110.684 147.706L109.34 145.029H104.194V184.445H112.022V172.43C114.22 173.987 116.955 174.898 119.96 174.898C128.699 174.898 135.137 168.305 135.137 159.508C135.137 150.763 128.699 144.221 119.96 144.221ZM119.319 167.445C114.757 167.445 111.434 164.065 111.434 159.508C111.434 155.003 114.757 151.57 119.319 151.57C123.877 151.57 127.199 155.003 127.199 159.508C127.199 164.065 123.877 167.445 119.319 167.445Z" fill="white"/>
<path d="M163.881 154.195C166.506 152.372 168.115 149.372 168.115 146.154C168.115 140.628 163.293 136.497 156.803 136.497H141.303V174.039H157.23C163.772 174.039 169.084 169.216 169.084 163.206C169.084 159.185 167.152 155.966 163.881 154.195ZM160.235 147.388C160.235 149.747 158.569 151.409 156.048 151.409H149.24V143.419H156.048C158.569 143.419 160.235 145.029 160.235 147.388ZM156.48 166.586H149.24V158.164H156.48C159.162 158.164 160.928 159.935 160.928 162.351C160.928 164.815 159.162 166.586 156.48 166.586Z" fill="white"/>
<path d="M188.923 174.846C197.876 174.846 204.585 168.247 204.585 159.508C204.585 150.763 197.876 144.221 188.923 144.221C179.965 144.221 173.262 150.763 173.262 159.508C173.262 168.247 179.965 174.846 188.923 174.846ZM188.923 167.445C184.418 167.445 181.199 164.227 181.199 159.508C181.199 154.841 184.418 151.57 188.923 151.57C193.428 151.57 196.647 154.841 196.647 159.508C196.647 164.227 193.428 167.445 188.923 167.445Z" fill="white"/>
<path d="M235.576 173.987L225.654 158.758L234.987 145.029H226.404L220.987 153.445L216.003 145.029H207.154L216.326 159.133L206.508 173.987H215.143L220.987 164.44L226.727 173.987H235.576Z" fill="white"/>
</svg>
