<svg width="318" height="80" viewBox="0 0 318 80" fill="none" xmlns="http://www.w3.org/2000/svg">
<mask id="mask0_2_115" style="mask-type:luminance" maskUnits="userSpaceOnUse" x="0" y="0" width="65" height="80">
<path d="M0 0H64.9844V80H0V0Z" fill="white"/>
</mask>
<g mask="url(#mask0_2_115)">
<path d="M53.6925 18.4271H49.0571V16.5313C49.0571 7.43233 41.5988 0.020874 32.4061 0.020874C23.2134 0.020874 15.755 7.41671 15.755 16.5313V18.4271H11.1196C5.14046 18.4271 0.291504 23.2396 0.291504 29.1667V69.224C0.291504 75.1511 5.14046 79.9636 11.1196 79.9636H53.6925C59.6717 79.9636 64.5259 75.1511 64.5259 69.224V29.1875C64.5259 23.2605 59.6717 18.4271 53.6925 18.4271ZM21.6925 16.5521C21.6925 10.6823 26.5103 5.9115 32.4269 5.9115C38.3436 5.9115 43.1561 10.6823 43.1561 16.5521V18.448H21.6925V16.5521ZM32.4061 66.1719C23.7655 66.1719 16.7446 59.2084 16.7446 50.6407H21.6769C21.6769 56.5105 26.4894 61.2813 32.4061 61.2813C38.3228 61.2813 43.1405 56.5105 43.1405 50.6407H48.0728C48.0884 59.1928 41.0675 66.1719 32.4061 66.1719Z" fill="#00BF63"/>
</g>
<path d="M96.175 64.5026C103.951 64.5026 110.383 60.586 110.383 52.4922C110.383 44.0704 103.201 42.2995 97.5135 40.8516C93.4927 39.8881 90.2739 39.0808 90.2739 36.4558C90.2739 33.987 92.9041 32.862 95.5291 32.862C98.5864 32.862 101.269 34.362 101.269 37.6329H109.258C109.258 30.1276 104.378 25.5131 95.7427 25.5131C87.4302 25.5131 82.1229 29.5912 82.1229 36.7787C82.1229 44.8724 88.9875 46.5391 94.6698 47.9297C98.7479 48.8412 102.18 49.6485 102.18 52.5964C102.18 55.3881 99.175 56.9974 96.1177 56.9974C92.7948 56.9974 89.7896 55.2266 89.7896 51.6329H81.5864C81.5864 59.6745 87.5396 64.5026 96.175 64.5026Z" fill="white"/>
<path d="M132.963 34.1485C129.473 34.1485 126.416 35.4349 124.218 37.5287V24.3881H116.39V63.7526H124.218V48.5756C124.218 43.8568 126.791 41.0131 130.707 41.0131C134.192 41.0131 135.749 43.1589 135.749 47.5026V63.7526H143.577V46.1641C143.577 38.8151 139.504 34.1485 132.963 34.1485Z" fill="white"/>
<path d="M164.493 64.6121C173.446 64.6121 180.154 58.0131 180.154 49.2735C180.154 40.5287 173.446 33.9871 164.493 33.9871C155.534 33.9871 148.831 40.5287 148.831 49.2735C148.831 58.0131 155.534 64.6121 164.493 64.6121ZM164.493 57.211C159.987 57.211 156.769 53.9923 156.769 49.2735C156.769 44.6069 159.987 41.336 164.493 41.336C168.998 41.336 172.216 44.6069 172.216 49.2735C172.216 53.9923 168.998 57.211 164.493 57.211Z" fill="white"/>
<path d="M201.546 33.9871C197.952 33.9871 194.733 35.2735 192.27 37.4714L190.926 34.7944H185.78V74.211H193.608V62.1954C195.806 63.7527 198.541 64.6641 201.546 64.6641C210.285 64.6641 216.723 58.0704 216.723 49.2735C216.723 40.5287 210.285 33.9871 201.546 33.9871ZM200.905 57.211C196.343 57.211 193.02 53.8308 193.02 49.2735C193.02 44.7683 196.343 41.336 200.905 41.336C205.463 41.336 208.785 44.7683 208.785 49.2735C208.785 53.8308 205.463 57.211 200.905 57.211Z" fill="white"/>
<path d="M245.468 43.961C248.093 42.1381 249.702 39.1381 249.702 35.9193C249.702 30.3933 244.879 26.2631 238.39 26.2631H222.89V63.8047H238.817C245.358 63.8047 250.671 58.9818 250.671 52.9714C250.671 48.9506 248.739 45.7318 245.468 43.961ZM241.822 37.1537C241.822 39.5131 240.155 41.1745 237.634 41.1745H230.827V33.1849H237.634C240.155 33.1849 241.822 34.7943 241.822 37.1537ZM238.067 56.3516H230.827V47.9297H238.067C240.749 47.9297 242.515 49.7006 242.515 52.1172C242.515 54.5808 240.749 56.3516 238.067 56.3516Z" fill="white"/>
<path d="M270.509 64.6121C279.462 64.6121 286.171 58.0131 286.171 49.2735C286.171 40.5287 279.462 33.9871 270.509 33.9871C261.551 33.9871 254.848 40.5287 254.848 49.2735C254.848 58.0131 261.551 64.6121 270.509 64.6121ZM270.509 57.211C266.004 57.211 262.785 53.9923 262.785 49.2735C262.785 44.6069 266.004 41.336 270.509 41.336C275.014 41.336 278.233 44.6069 278.233 49.2735C278.233 53.9923 275.014 57.211 270.509 57.211Z" fill="white"/>
<path d="M317.162 63.7526L307.24 48.5235L316.573 34.7943H307.99L302.573 43.211L297.589 34.7943H288.74L297.912 48.8985L288.094 63.7526H296.73L302.573 54.2058L308.313 63.7526H317.162Z" fill="white"/>
</svg>
